# xmcd
#
# Track frame offsets: 
#        150
#        16635
#        33705
#        55122
#        74226
#        95239
#        114970
#        130267
#        148117
#        163229
#
# Disc length: 2428 seconds
#
# Revision: 0
# Processed by: cddbd v1.5.2PL0 Copyright (c) Steve Scherf et al.
# Submitted via: ExactAudioCopy v1.0b4
#
DISCID=93097a0a
DTITLE=Robert Cray Band, The - Don't Be Afraid Of The Dark (LP)
DYEAR=1988
DGENRE=Blues
TTITLE0=Don't Be Afraid Of The Dark
TTITLE1=Don't You Even Care?
TTITLE2=Your Secret's Safe With Me
TTITLE3=I Can't Go Home
TTITLE4=Night Patrol
TTITLE5=Acting This Way
TTITLE6=Gotta Change The Rules
TTITLE7=Across The Line
TTITLE8=At Last
TTITLE9=Laugh Out Loud
EXTD=
EXTT0=
EXTT1=
EXTT2=
EXTT3=
EXTT4=
EXTT5=
EXTT6=
EXTT7=
EXTT8=
EXTT9=
PLAYORDER=
